<svg width="1070" height="308" viewBox="0 0 1070 308" fill="none" xmlns="http://www.w3.org/2000/svg">
<path d="M408.106 76.6242C405.897 72.2721 401.935 68.6994 396.218 65.9712C390.567 63.308 382.577 61.814 372.184 61.4892C372.184 61.4892 372.184 61.4892 372.119 61.4892C372.054 61.4892 371.989 61.4892 371.989 61.4892C371.86 61.4242 371.73 61.2943 371.73 61.1644C371.73 61.0345 371.795 60.9046 371.925 60.8396H372.184C381.148 60.3849 388.034 58.8909 392.776 56.3576C397.583 53.7593 400.96 50.5115 402.779 46.5491C404.598 42.5867 405.507 38.2346 405.507 33.5577C405.507 27.3868 404.403 22.3201 402.194 18.2278C399.986 14.2005 397.128 10.9527 393.62 8.54925C390.112 6.14584 386.15 4.392 381.863 3.28773C377.511 2.18346 373.224 1.46894 368.872 1.20911C364.519 0.949281 360.687 0.689453 357.049 0.689453H308.007V124.562H358.219C362.311 124.562 366.728 124.433 371.535 124.108C376.277 123.783 381.018 123.068 385.695 122.029C390.372 120.925 394.724 119.171 398.687 116.768C402.649 114.364 405.767 111.051 408.041 106.959C410.314 102.867 411.418 97.6702 411.418 91.3694C411.353 85.913 410.314 81.0412 408.106 76.6242ZM329.962 18.9424H354.386C359.518 18.9424 364.325 19.2672 368.677 19.7868C373.094 20.3714 376.666 21.8005 379.33 24.2039C382.058 26.5423 383.422 30.4398 383.422 35.8961C383.422 41.0277 382.058 44.7303 379.33 47.0038C376.601 49.2773 373.029 50.7063 368.677 51.2909C364.325 51.8756 359.518 52.1354 354.386 52.1354H329.962V18.9424ZM383.877 100.593C380.954 103.257 377.056 104.88 372.184 105.53C367.378 106.18 362.051 106.504 356.335 106.504H330.157V69.284H355.036C361.012 69.284 366.598 69.6738 371.665 70.3883C376.731 71.1028 380.759 72.7917 383.747 75.4549C386.735 78.0532 388.294 82.3404 388.294 88.1865C388.294 93.8378 386.8 97.995 383.877 100.593Z" fill="white"/>
<path d="M490.407 34.1416L465.528 99.943L442.404 34.1416H419.344L454.55 123.003L448.574 136.189C447.34 138.917 446.106 141.126 445.002 142.88H467.087C467.737 141.451 468.386 139.957 469.101 138.398L513.531 34.0767H490.407V34.1416Z" fill="white"/>
<path d="M553.351 107.025V49.9923H574.007V34.1428H553.351V11.0181H535.293C535.293 16.4745 534.968 20.6967 534.383 23.7496C533.799 26.8026 532.889 29.0761 531.655 30.5701C530.421 32.0641 528.732 32.9735 526.718 33.4282C524.64 33.8829 522.041 34.0778 518.793 34.0778V49.9273H532.434V102.088C532.434 110.013 534.253 115.729 537.826 119.236C541.398 122.744 546.79 124.498 554 124.498H574.462V106.895H553.351V107.025Z" fill="white"/>
<path d="M632.141 126.771C621.748 126.771 613.239 124.563 606.743 120.081C600.182 115.599 595.376 109.818 592.193 102.802C589.01 95.7869 587.386 88.4467 587.256 80.7818C587.126 71.6878 588.815 63.5682 592.453 56.4879C596.025 49.3426 601.157 43.8213 607.847 39.7939C614.538 35.7666 622.398 33.7529 631.492 33.7529C639.546 33.7529 646.822 35.5068 653.252 39.0144C659.683 42.5221 664.815 47.4589 668.517 53.7597C672.285 60.0605 674.233 67.5955 674.363 76.4297C674.363 76.7545 674.363 77.5339 674.363 78.963C674.363 80.3271 674.363 81.4314 674.363 82.1459H608.562C608.562 90.5253 610.64 96.9561 614.863 101.373C619.02 105.855 624.671 108.064 631.687 108.064C637.273 108.064 641.95 106.7 645.652 103.906C649.42 101.113 651.628 97.4757 652.343 92.9287H674.103C673.519 99.2296 671.44 104.946 667.933 110.077C664.425 115.209 659.618 119.301 653.642 122.289C647.666 125.277 640.456 126.771 632.141 126.771ZM609.211 72.0126H651.888C651.758 70.9733 651.433 69.3494 650.979 67.1408C650.524 64.9323 649.55 62.6588 648.121 60.3203C646.627 57.9819 644.548 55.9682 641.755 54.4093C638.962 52.7853 635.389 52.0058 630.972 52.0058C626.555 52.0058 622.982 52.7204 620.189 54.2144C617.396 55.7084 615.252 57.5272 613.823 59.7357C612.329 61.9443 611.225 64.1528 610.511 66.3613C609.796 68.5049 609.341 70.3887 609.211 72.0126Z" fill="white"/>
<path d="M307.941 289.683L347.565 165.81H384.33L425.058 289.683H401.024L366.272 175.293L331.715 289.683H307.941Z" fill="white"/>
<path d="M436.491 289.681V199.261H455.653L459.421 218.813H459.875C460.005 218.359 460.59 217.189 461.499 215.176C462.474 213.162 464.032 210.953 466.371 208.485C468.644 206.017 471.697 203.808 475.595 201.989C479.492 200.171 484.364 199.261 490.21 199.261C496.641 199.261 501.902 200.301 505.93 202.444C509.957 204.588 513.14 207.381 515.478 210.824C517.817 214.266 519.506 218.099 520.415 222.256C521.39 226.413 521.974 230.571 522.169 234.663C522.364 238.755 522.494 242.523 522.494 245.9V289.681H500.473V245.641C500.473 240.769 500.019 236.417 499.044 232.454C498.07 228.492 496.251 225.244 493.523 222.776C490.795 220.307 486.573 219.008 480.856 219.008C475.01 219.008 470.528 220.372 467.41 223.1C464.357 225.829 462.214 229.206 461.044 233.364C459.875 237.456 459.291 241.873 459.291 246.55V289.681H436.491Z" fill="white"/>
<path d="M570.041 291.892C561.791 291.892 555.166 289.943 550.034 286.046C544.903 282.148 541.2 276.757 538.927 269.742C536.653 262.791 535.549 254.737 535.549 245.643C535.549 236.419 536.718 228.234 539.057 221.219C541.395 214.203 545.098 208.682 550.164 204.85C555.231 200.952 561.856 199.003 570.106 199.003C575.367 199.003 579.85 199.718 583.422 201.212C586.995 202.706 589.918 204.46 592.256 206.473C594.53 208.552 596.284 210.566 597.453 212.514C598.622 214.463 599.467 216.087 599.856 217.256H600.311V199.198H623.436V289.618H604.078L600.311 274.873H599.856C599.531 275.912 598.752 277.342 597.453 279.16C596.154 280.979 594.335 282.928 592.061 284.877C589.788 286.89 586.865 288.514 583.227 289.813C579.525 291.242 575.173 291.892 570.041 291.892ZM579.265 272.989C584.721 272.989 588.943 271.82 591.996 269.482C595.049 267.143 597.193 263.895 598.362 259.673C599.531 255.516 600.116 250.904 600.116 245.902C600.116 240.446 599.467 235.769 598.232 231.677C596.998 227.649 594.855 224.467 591.867 222.193C588.879 219.92 584.656 218.75 579.2 218.75C573.484 218.75 569.067 219.985 565.884 222.518C562.701 224.986 560.557 228.299 559.258 232.326C558.024 236.354 557.374 240.901 557.374 245.837C557.374 250.839 558.024 255.386 559.258 259.478C560.492 263.571 562.701 266.819 565.884 269.287C569.132 271.755 573.549 272.989 579.265 272.989Z" fill="white"/>
<path d="M641.104 289.683V165.81H663.125V289.683H641.104Z" fill="white"/>
<path d="M744.969 199.262L720.09 265.063L697.03 199.262H673.906L709.112 288.123L703.201 301.309C701.902 304.037 700.733 306.246 699.564 308H721.649C722.299 306.571 722.948 305.077 723.663 303.518L768.093 199.197H744.969V199.262Z" fill="white"/>
<path d="M807.913 272.08V215.112H828.569V199.263H807.913V176.138H789.855C789.855 181.595 789.53 185.817 788.946 188.87C788.361 191.923 787.452 194.196 786.217 195.69C784.983 197.184 783.294 198.094 781.281 198.548C779.202 199.003 776.604 199.198 773.356 199.198V215.047H786.997V267.208C786.997 275.133 788.816 280.849 792.388 284.357C795.961 287.864 801.352 289.618 808.563 289.618H829.024V272.015H807.913V272.08Z" fill="white"/>
<path d="M859.878 190.233C855.006 190.233 851.758 188.999 850.069 186.466C848.381 183.998 847.536 181.139 847.536 177.892C847.536 174.644 848.381 171.851 850.069 169.447C851.758 167.044 855.006 165.81 859.878 165.81C864.88 165.81 868.127 167.044 869.686 169.447C871.245 171.851 872.025 174.709 872.025 177.892C872.025 181.139 871.245 183.998 869.686 186.466C868.127 188.999 864.88 190.233 859.878 190.233Z" fill="white"/>
<path d="M871.119 199.261H848.644V289.681H871.119V199.261Z" fill="white"/>
<path d="M933.413 291.891C924.903 291.891 917.174 290.138 910.288 286.695C903.403 283.252 897.881 278.121 893.789 271.3C889.697 264.48 887.618 256.165 887.618 246.292C887.943 236.483 890.087 228.039 894.114 220.958C898.141 213.943 903.598 208.487 910.483 204.654C917.368 200.822 925.163 198.938 933.803 198.938C942.897 198.938 950.626 200.692 956.927 204.135C963.228 207.577 968.165 211.994 971.673 217.451C975.18 222.907 977.194 228.623 977.584 234.599H956.927C955.888 229.338 953.485 225.311 949.652 222.517C945.82 219.724 940.753 218.36 934.452 218.36C929.191 218.36 924.709 219.464 921.006 221.673C917.368 223.881 914.51 226.934 912.562 230.832C910.613 234.729 909.574 239.276 909.574 244.603C909.574 253.112 911.652 259.868 915.874 264.934C920.032 270.001 926.268 272.534 934.452 272.534C940.038 272.534 944.91 271.04 949.067 268.117C953.225 265.194 955.823 260.842 956.862 255.126H977.519C977.064 261.427 975.05 267.403 971.478 272.924C967.905 278.51 962.903 283.057 956.538 286.565C950.237 290.138 942.507 291.891 933.413 291.891Z" fill="white"/>
<path d="M1031.76 291.891C1028.7 291.891 1025.33 291.501 1021.62 290.656C1017.98 289.877 1014.28 288.578 1010.64 286.889C1007.01 285.2 1003.63 283.056 1000.64 280.393C997.653 277.73 995.25 274.677 993.496 271.169C991.742 267.662 990.833 263.569 990.833 258.828H1011.49C1011.49 258.957 1011.62 259.932 1011.81 261.686C1012.01 263.439 1012.72 265.388 1013.89 267.532C1015.06 269.675 1016.95 271.559 1019.61 273.118C1022.27 274.742 1026.04 275.521 1031.04 275.521C1035 275.521 1038.25 275.002 1040.72 273.962C1043.19 272.923 1045.07 271.624 1046.31 270.13C1047.54 268.571 1048.19 266.882 1048.19 264.933C1048.19 261.686 1046.83 259.152 1044.1 257.333C1041.37 255.515 1037.93 254.021 1033.64 252.851C1029.35 251.682 1024.87 250.448 1020.13 249.214C1015.39 247.98 1010.9 246.291 1006.68 244.277C1002.53 242.198 999.083 239.405 996.419 235.833C993.756 232.26 992.457 227.583 992.457 221.867C992.457 213.358 995.835 206.992 1002.59 202.705C1009.35 198.482 1017.92 196.339 1028.31 196.339C1033.9 196.339 1039.16 196.988 1044.03 198.223C1048.97 199.457 1053.32 201.47 1057.15 204.134C1060.99 206.862 1064.04 210.305 1066.31 214.462C1068.59 218.619 1069.76 223.751 1069.76 229.727H1049.1C1049.23 226.349 1048.71 223.621 1047.48 221.477C1046.24 219.334 1044.55 217.71 1042.54 216.54C1040.46 215.371 1038.25 214.592 1035.91 214.137C1033.57 213.682 1031.3 213.487 1029.09 213.487C1023.83 213.487 1019.8 214.397 1017.08 216.216C1014.35 218.034 1012.98 220.438 1012.98 223.361C1012.98 226.739 1014.35 229.337 1017.08 231.156C1019.8 232.975 1023.31 234.469 1027.66 235.638C1032.02 236.807 1036.56 238.041 1041.43 239.275C1046.31 240.51 1050.79 242.199 1055.08 244.212C1059.3 246.291 1062.81 249.019 1065.53 252.462C1068.26 255.904 1069.63 260.516 1069.63 266.233C1069.63 271.949 1068.07 276.691 1064.88 280.458C1061.7 284.226 1057.35 287.019 1051.7 288.903C1046.05 290.916 1039.36 291.891 1031.76 291.891Z" fill="white"/>
<path d="M258.964 133.721H213.104C208.167 133.721 204.205 129.759 204.205 124.822V79.0925C204.205 76.884 202.451 75.1302 200.243 75.1302H82.3457C81.3064 75.1302 80.3321 75.5199 79.5526 76.2994L59.6757 96.1762V4.65183C59.6757 2.44329 57.9219 0.689453 55.7134 0.689453H4.78708C2.57855 0.689453 0.824707 2.44329 0.824707 4.65183V244.473C0.824707 246.682 2.57855 248.435 4.78708 248.435H50.7766C55.7134 248.435 59.7407 252.398 59.7407 257.335V303.324C59.7407 305.533 61.4945 307.286 63.7031 307.286H203.88L204.075 307.092C208.492 302.61 212.584 298.582 216.352 294.75C232.007 279.095 243.829 267.273 261.757 249.41C262.536 248.63 262.926 247.656 262.926 246.552V137.684C262.926 135.475 261.107 133.721 258.964 133.721ZM204.075 272.859C204.075 276.367 199.788 278.121 197.32 275.652L171.207 249.54C170.492 248.825 170.038 247.786 170.038 246.747L169.973 227.194L152.304 245.642C150.616 247.396 148.277 248.37 145.874 248.37H68.6398C63.7031 248.37 59.6757 244.343 59.6757 239.406V142.945C59.6757 138.009 63.6381 134.046 68.5748 134.046H195.046C199.983 134.046 204.01 138.073 204.01 143.01V272.859H204.075Z" fill="white"/>
<path d="M165.491 172.305H92.3491V208.226H165.491V172.305Z" fill="#AFEB2B"/>
</svg>
