<svg width="137" height="49" viewBox="0 0 137 49" fill="none" xmlns="http://www.w3.org/2000/svg">
<path d="M1.77763 0.322464H8.96221C9.75227 0.322464 10.4847 0.445911 11.1596 0.692803C11.8509 0.939696 12.4434 1.26889 12.9372 1.68038C13.431 2.09186 13.8178 2.57742 14.0976 3.13704C14.3774 3.68021 14.5173 4.24806 14.5173 4.8406C14.5173 5.81172 14.2786 6.61823 13.8013 7.26016C13.3404 7.90208 12.7891 8.3794 12.1471 8.69214V8.93903C13.0853 9.28468 13.8178 9.81138 14.3445 10.5191C14.8876 11.2269 15.1592 12.0993 15.1592 13.1362C15.1592 13.8933 15.0029 14.5764 14.6901 15.1854C14.3939 15.778 13.9741 16.2882 13.431 16.7162C12.9043 17.1276 12.2706 17.4486 11.5299 17.679C10.8057 17.893 10.0156 18 9.15973 18H1.77763V0.322464ZM8.59188 7.33422C9.28318 7.33422 9.81811 7.17786 10.1967 6.86513C10.5752 6.5524 10.7645 6.10799 10.7645 5.53191C10.7645 4.95582 10.5752 4.51141 10.1967 4.19868C9.81811 3.88595 9.31609 3.72959 8.69063 3.72959H5.62916V7.33422H8.59188ZM8.91284 14.5435C10.5094 14.5435 11.3077 13.8851 11.3077 12.5684C11.3077 11.2516 10.4765 10.5932 8.81408 10.5932H5.62916V14.5435H8.91284ZM21.4602 9.77846L15.5101 0.322464H20.1517L23.2625 5.50722H23.5094L26.4721 0.322464H31.1631L25.3117 9.77846V18H21.4602V9.77846ZM36.9948 18V3.97648H32.0569V0.322464H45.7842V3.97648H40.8463V18H36.9948ZM51.9939 3.97648V7.33422H59.0057V10.9882H51.9939V14.346H59.7957V18H48.1424V0.322464H59.7957V3.97648H51.9939ZM6.913 30.3225H11.3571L17.9738 48H13.7272L12.3693 44.0497H5.90074L4.54283 48H0.296272L6.913 30.3225ZM11.1349 40.5438L9.85103 36.8404L9.25849 34.6678H9.01159L8.41905 36.8404L7.13521 40.5438H11.1349ZM20.0535 30.3225H24.4976L30.8674 41.2351H31.1143L30.8674 37.828V30.3225H34.6696V48H30.6205L23.8556 36.4454H23.6088L23.8556 39.8525V48H20.0535V30.3225ZM43.3683 30.3225H47.8124L54.4291 48H50.1825L48.8246 44.0497H42.356L40.9981 48H36.7516L43.3683 30.3225ZM47.5902 40.5438L46.3063 36.8404L45.7138 34.6678H45.4669L44.8743 36.8404L43.5905 40.5438H47.5902ZM56.5088 30.3225H60.3603V44.346H67.7671V48H56.5088V30.3225ZM72.3819 39.7785L66.4318 30.3225H71.0733L74.1842 35.5072H74.4311L77.3938 30.3225H82.0848L76.2334 39.7785V48H72.3819V39.7785ZM87.9165 48V33.9765H82.9786V30.3225H96.7058V33.9765H91.768V48H87.9165ZM99.0641 30.3225H102.916V48H99.0641V30.3225ZM121.754 45.136C119.944 47.3087 117.582 48.395 114.669 48.395C113.352 48.395 112.126 48.1564 110.99 47.679C109.854 47.2017 108.867 46.5516 108.027 45.7286C107.204 44.8891 106.554 43.9098 106.077 42.7906C105.599 41.6713 105.361 40.4615 105.361 39.1612C105.361 37.8609 105.599 36.6512 106.077 35.5319C106.554 34.4127 107.204 33.4415 108.027 32.6186C108.867 31.7791 109.854 31.1208 110.99 30.6434C112.126 30.1661 113.352 29.9274 114.669 29.9274C116.117 29.9274 117.368 30.1743 118.421 30.6681C119.491 31.1619 120.462 31.8779 121.335 32.8161L118.644 35.4331C118.183 34.9064 117.631 34.4703 116.989 34.1246C116.348 33.7625 115.582 33.5815 114.693 33.5815C113.92 33.5815 113.196 33.7131 112.521 33.9765C111.862 34.2398 111.286 34.6184 110.792 35.1122C110.299 35.606 109.912 36.1985 109.632 36.8898C109.352 37.5647 109.212 38.3218 109.212 39.1612C109.212 40.0007 109.352 40.766 109.632 41.4573C109.912 42.1322 110.299 42.7165 110.792 43.2103C111.286 43.7041 111.862 44.0826 112.521 44.346C113.196 44.6093 113.92 44.741 114.693 44.741C115.632 44.741 116.446 44.5517 117.138 44.1732C117.829 43.7946 118.454 43.2514 119.014 42.5437L121.754 45.136ZM130.033 48.395C128.387 48.395 126.963 47.9589 125.762 47.0865C124.577 46.1977 123.737 44.9303 123.243 43.2843L126.873 41.8524C127.087 42.6918 127.441 43.3831 127.934 43.9263C128.428 44.4694 129.128 44.741 130.033 44.741C130.329 44.741 130.609 44.7081 130.872 44.6423C131.152 44.5764 131.391 44.4777 131.588 44.346C131.802 44.1978 131.975 44.0168 132.107 43.8028C132.239 43.5888 132.304 43.342 132.304 43.0621C132.304 42.7823 132.247 42.5272 132.132 42.2968C132.033 42.0499 131.86 41.8277 131.613 41.6302C131.366 41.4162 131.037 41.2104 130.625 41.0129C130.214 40.799 129.696 40.5768 129.07 40.3463L127.984 39.9513C127.523 39.7867 127.046 39.5645 126.552 39.2847C126.074 38.9884 125.638 38.6345 125.243 38.223C124.848 37.8116 124.527 37.3425 124.28 36.8157C124.033 36.2726 123.91 35.6718 123.91 35.0134C123.91 34.3057 124.05 33.6391 124.33 33.0136C124.61 32.3881 125.005 31.8532 125.515 31.4088C126.025 30.9479 126.642 30.5858 127.366 30.3225C128.091 30.0591 128.889 29.9274 129.761 29.9274C130.683 29.9274 131.473 30.0509 132.132 30.2978C132.79 30.5282 133.35 30.8327 133.81 31.2113C134.271 31.5734 134.633 31.9849 134.897 32.4457C135.177 32.9066 135.391 33.351 135.539 33.779L132.206 35.1863C132.025 34.6596 131.736 34.2398 131.341 33.9271C130.946 33.5979 130.436 33.4333 129.811 33.4333C129.152 33.4333 128.626 33.5732 128.231 33.853C127.852 34.1164 127.663 34.462 127.663 34.89C127.663 35.3344 127.86 35.7294 128.255 36.0751C128.65 36.4207 129.35 36.7664 130.354 37.112L131.44 37.4824C132.938 37.9926 134.098 38.6757 134.921 39.5316C135.744 40.3875 136.156 41.5396 136.156 42.9881C136.156 43.9098 135.967 44.7081 135.588 45.3829C135.226 46.0578 134.749 46.6174 134.156 47.0618C133.58 47.5062 132.922 47.8354 132.181 48.0494C131.457 48.2798 130.741 48.395 130.033 48.395Z" fill="#202124"/>
</svg>
