<svg width="39" height="11" viewBox="0 0 39 11" fill="none" xmlns="http://www.w3.org/2000/svg">
<path d="M2.77907e-05 10.321V0.139204H2.46097V8.32244H6.69676V10.321H2.77907e-05ZM17.1843 5.23011C17.1843 6.35038 16.9689 7.29995 16.538 8.07883C16.1072 8.85772 15.5238 9.44934 14.788 9.85369C14.0555 10.258 13.2336 10.4602 12.3221 10.4602C11.4073 10.4602 10.5837 10.2564 9.85124 9.84872C9.11875 9.44105 8.53708 8.84943 8.10621 8.07386C7.67865 7.29498 7.46487 6.34706 7.46487 5.23011C7.46487 4.10985 7.67865 3.16027 8.10621 2.38139C8.53708 1.60251 9.11875 1.01089 9.85124 0.606533C10.5837 0.202177 11.4073 -1.07288e-06 12.3221 -1.07288e-06C13.2336 -1.07288e-06 14.0555 0.202177 14.788 0.606533C15.5238 1.01089 16.1072 1.60251 16.538 2.38139C16.9689 3.16027 17.1843 4.10985 17.1843 5.23011ZM14.6687 5.23011C14.6687 4.56723 14.5742 4.0071 14.3853 3.54972C14.1997 3.09233 13.9313 2.74597 13.5799 2.51065C13.2319 2.27533 12.8126 2.15767 12.3221 2.15767C11.8349 2.15767 11.4156 2.27533 11.0643 2.51065C10.713 2.74597 10.4429 3.09233 10.2539 3.54972C10.0683 4.0071 9.97552 4.56723 9.97552 5.23011C9.97552 5.89299 10.0683 6.45312 10.2539 6.91051C10.4429 7.3679 10.713 7.71425 11.0643 7.94957C11.4156 8.1849 11.8349 8.30256 12.3221 8.30256C12.8126 8.30256 13.2319 8.1849 13.5799 7.94957C13.9313 7.71425 14.1997 7.3679 14.3853 6.91051C14.5742 6.45312 14.6687 5.89299 14.6687 5.23011ZM25.3029 3.4652C25.2466 3.25639 25.1637 3.07244 25.0544 2.91335C24.945 2.75095 24.8108 2.6134 24.6517 2.50071C24.4926 2.38802 24.3103 2.3035 24.1048 2.24716C23.8993 2.1875 23.6739 2.15767 23.4286 2.15767C22.9348 2.15767 22.5072 2.27699 22.146 2.51562C21.788 2.75426 21.5113 3.10227 21.3157 3.55966C21.1202 4.01373 21.0224 4.56558 21.0224 5.2152C21.0224 5.86813 21.1169 6.42495 21.3058 6.88565C21.4947 7.34635 21.7681 7.69768 22.1261 7.93963C22.484 8.18158 22.9182 8.30256 23.4286 8.30256C23.8794 8.30256 24.2606 8.22964 24.5721 8.08381C24.887 7.93466 25.1256 7.72419 25.288 7.45241C25.4504 7.18063 25.5316 6.86079 25.5316 6.4929L25.989 6.54758H23.5132V4.75284H27.9031V6.10014C27.9031 7.0116 27.7092 7.79214 27.3214 8.44176C26.9369 9.09138 26.4066 9.5902 25.7305 9.93821C25.0577 10.2862 24.2838 10.4602 23.4088 10.4602C22.4376 10.4602 21.5842 10.2498 20.8484 9.82883C20.1126 9.40791 19.5392 8.808 19.1282 8.02912C18.7172 7.24692 18.5117 6.31889 18.5117 5.24503C18.5117 4.4098 18.636 3.66903 18.8846 3.02273C19.1332 2.37311 19.4795 1.82292 19.9237 1.37216C20.3711 0.921401 20.8882 0.580018 21.4748 0.34801C22.0648 0.116003 22.6995 -1.07288e-06 23.3789 -1.07288e-06C23.9689 -1.07288e-06 24.5174 0.084516 25.0245 0.25355C25.5349 0.422585 25.9857 0.661221 26.3768 0.96946C26.7712 1.2777 27.0911 1.64394 27.3363 2.06818C27.5816 2.49242 27.734 2.9581 27.7937 3.4652H25.3029ZM38.9636 5.23011C38.9636 6.35038 38.7482 7.29995 38.3173 8.07883C37.8865 8.85772 37.3031 9.44934 36.5673 9.85369C35.8348 10.258 35.0129 10.4602 34.1014 10.4602C33.1866 10.4602 32.363 10.2564 31.6305 9.84872C30.8981 9.44105 30.3164 8.84943 29.8855 8.07386C29.4579 7.29498 29.2442 6.34706 29.2442 5.23011C29.2442 4.10985 29.4579 3.16027 29.8855 2.38139C30.3164 1.60251 30.8981 1.01089 31.6305 0.606533C32.363 0.202177 33.1866 -1.07288e-06 34.1014 -1.07288e-06C35.0129 -1.07288e-06 35.8348 0.202177 36.5673 0.606533C37.3031 1.01089 37.8865 1.60251 38.3173 2.38139C38.7482 3.16027 38.9636 4.10985 38.9636 5.23011ZM36.448 5.23011C36.448 4.56723 36.3535 4.0071 36.1646 3.54972C35.979 3.09233 35.7106 2.74597 35.3592 2.51065C35.0112 2.27533 34.5919 2.15767 34.1014 2.15767C33.6142 2.15767 33.1949 2.27533 32.8436 2.51065C32.4923 2.74597 32.2222 3.09233 32.0332 3.54972C31.8476 4.0071 31.7548 4.56723 31.7548 5.23011C31.7548 5.89299 31.8476 6.45312 32.0332 6.91051C32.2222 7.3679 32.4923 7.71425 32.8436 7.94957C33.1949 8.1849 33.6142 8.30256 34.1014 8.30256C34.5919 8.30256 35.0112 8.1849 35.3592 7.94957C35.7106 7.71425 35.979 7.3679 36.1646 6.91051C36.3535 6.45312 36.448 5.89299 36.448 5.23011Z" fill="url(#paint0_linear_15_65)"/>
<defs>
<linearGradient id="paint0_linear_15_65" x1="69.1058" y1="9.10597" x2="-21.5809" y2="-3.4581" gradientUnits="userSpaceOnUse">
<stop stop-color="#49A85A" stop-opacity="0.8"/>
<stop offset="1" stop-color="#1E6FB8"/>
</linearGradient>
</defs>
</svg>
