<svg width="1069" height="308" viewBox="0 0 1069 308" fill="none" xmlns="http://www.w3.org/2000/svg">
<path d="M407.281 75.9347C405.072 71.5826 401.11 68.01 395.394 65.2818C389.742 62.6185 381.753 61.1245 371.359 60.7997C371.359 60.7997 371.36 60.7997 371.295 60.7997C371.23 60.7997 371.165 60.7997 371.165 60.7997C371.035 60.7348 370.905 60.6049 370.905 60.475C370.905 60.345 370.97 60.2151 371.1 60.1502H371.359C380.324 59.6955 387.209 58.2015 391.951 55.6681C396.758 53.0699 400.135 49.822 401.954 45.8596C403.773 41.8973 404.682 37.5451 404.682 32.8682C404.682 26.6973 403.578 21.6307 401.37 17.5384C399.161 13.5111 396.303 10.2632 392.795 7.8598C389.288 5.45639 385.325 3.70255 381.038 2.59828C376.686 1.49401 372.399 0.779484 368.047 0.519656C363.695 0.259828 359.862 0 356.225 0H307.182V123.873H357.394C361.486 123.873 365.903 123.743 370.71 123.418C375.452 123.093 380.194 122.379 384.871 121.34C389.547 120.235 393.9 118.482 397.862 116.078C401.824 113.675 404.942 110.362 407.216 106.27C409.489 102.177 410.594 96.9808 410.594 90.68C410.529 85.2236 409.489 80.3518 407.281 75.9347ZM329.137 18.2529H353.561C358.693 18.2529 363.5 18.5777 367.852 19.0974C372.269 19.682 375.842 21.111 378.505 23.5144C381.233 25.8529 382.597 29.7503 382.597 35.2067C382.597 40.3383 381.233 44.0408 378.505 46.3143C375.777 48.5878 372.204 50.0169 367.852 50.6015C363.5 51.1861 358.693 51.4459 353.561 51.4459H329.137V18.2529ZM383.052 99.9039C380.129 102.567 376.231 104.191 371.359 104.841C366.553 105.49 361.226 105.815 355.51 105.815H329.332V68.5946H354.211C360.187 68.5946 365.773 68.9843 370.84 69.6988C375.907 70.4134 379.934 72.1023 382.922 74.7655C385.91 77.3638 387.469 81.6509 387.469 87.4971C387.469 93.1483 385.975 97.3056 383.052 99.9039Z" fill="#1C2135"/>
<path d="M489.582 33.4522L464.703 99.2536L441.579 33.4522H418.519L453.725 122.313L447.749 135.5C446.515 138.228 445.281 140.436 444.177 142.19H466.262C466.912 140.761 467.561 139.267 468.276 137.708L512.706 33.3872H489.582V33.4522Z" fill="#1C2135"/>
<path d="M552.526 106.335V49.3028H573.182V33.4533H552.526V10.3286H534.468C534.468 15.785 534.143 20.0072 533.558 23.0602C532.974 26.1132 532.064 28.3867 530.83 29.8807C529.596 31.3747 527.907 32.2841 525.893 32.7388C523.815 33.1935 521.216 33.3883 517.969 33.3883V49.2378H531.61V101.398C531.61 109.323 533.428 115.039 537.001 118.547C540.574 122.055 545.965 123.808 553.175 123.808H573.637V106.205H552.526V106.335Z" fill="#1C2135"/>
<path d="M631.317 126.082C620.923 126.082 612.414 123.873 605.918 119.391C599.358 114.909 594.551 109.128 591.368 102.113C588.185 95.0974 586.561 87.7573 586.431 80.0923C586.301 70.9984 587.99 62.8787 591.628 55.7984C595.2 48.6532 600.332 43.1318 607.023 39.1045C613.713 35.0771 621.573 33.0635 630.667 33.0635C638.722 33.0635 645.997 34.8173 652.428 38.325C658.858 41.8327 663.99 46.7694 667.692 53.0702C671.46 59.3711 673.409 66.9061 673.539 75.7402C673.539 76.065 673.539 76.8445 673.539 78.2735C673.539 79.6376 673.539 80.7419 673.539 81.4564H607.737C607.737 89.8359 609.816 96.2666 614.038 100.684C618.195 105.166 623.847 107.374 630.862 107.374C636.448 107.374 641.125 106.01 644.828 103.217C648.595 100.424 650.804 96.7863 651.518 92.2393H673.279C672.694 98.5401 670.616 104.256 667.108 109.388C663.6 114.52 658.793 118.612 652.817 121.6C646.841 124.588 639.631 126.082 631.317 126.082ZM608.387 71.3231H651.064C650.934 70.2838 650.609 68.6599 650.154 66.4514C649.699 64.2428 648.725 61.9693 647.296 59.6309C645.802 57.2924 643.723 55.2788 640.93 53.7198C638.137 52.0959 634.564 51.3164 630.147 51.3164C625.73 51.3164 622.158 52.0309 619.364 53.5249C616.571 55.0189 614.428 56.8377 612.999 59.0463C611.505 61.2548 610.4 63.4633 609.686 65.6719C608.971 67.8155 608.517 69.6992 608.387 71.3231Z" fill="#1C2135"/>
<path d="M307.116 288.993L346.74 165.12H383.506L424.234 288.993H400.2L365.448 174.604L330.891 288.993H307.116Z" fill="#1C2135"/>
<path d="M435.666 288.992V198.572H454.829L458.596 218.124H459.051C459.181 217.669 459.765 216.5 460.675 214.486C461.649 212.473 463.208 210.264 465.546 207.796C467.82 205.327 470.873 203.119 474.77 201.3C478.668 199.481 483.54 198.572 489.386 198.572C495.816 198.572 501.078 199.611 505.105 201.755C509.133 203.898 512.316 206.691 514.654 210.134C516.992 213.577 518.681 217.409 519.591 221.567C520.565 225.724 521.15 229.881 521.345 233.973C521.539 238.066 521.669 241.833 521.669 245.211V288.992H499.649V244.951C499.649 240.079 499.194 235.727 498.22 231.765C497.245 227.802 495.427 224.555 492.698 222.086C489.97 219.618 485.748 218.319 480.032 218.319C474.186 218.319 469.704 219.683 466.586 222.411C463.533 225.139 461.389 228.517 460.22 232.674C459.051 236.766 458.466 241.184 458.466 245.86V288.992H435.666Z" fill="#1C2135"/>
<path d="M569.217 291.202C560.967 291.202 554.342 289.254 549.21 285.356C544.078 281.459 540.376 276.067 538.102 269.052C535.829 262.102 534.724 254.047 534.724 244.953C534.724 235.729 535.894 227.545 538.232 220.529C540.571 213.514 544.273 207.993 549.34 204.16C554.406 200.263 561.032 198.314 569.282 198.314C574.543 198.314 579.025 199.028 582.598 200.523C586.17 202.017 589.094 203.77 591.432 205.784C593.705 207.863 595.459 209.876 596.628 211.825C597.798 213.774 598.642 215.398 599.032 216.567H599.487V198.509H622.611V288.929H603.254L599.487 274.184H599.032C598.707 275.223 597.928 276.652 596.628 278.471C595.329 280.29 593.511 282.238 591.237 284.187C588.964 286.201 586.041 287.825 582.403 289.124C578.7 290.553 574.348 291.202 569.217 291.202ZM578.441 272.3C583.897 272.3 588.119 271.131 591.172 268.792C594.225 266.454 596.369 263.206 597.538 258.984C598.707 254.827 599.292 250.215 599.292 245.213C599.292 239.757 598.642 235.08 597.408 230.987C596.174 226.96 594.03 223.777 591.042 221.504C588.054 219.23 583.832 218.061 578.376 218.061C572.659 218.061 568.242 219.295 565.059 221.828C561.876 224.297 559.733 227.61 558.434 231.637C557.2 235.664 556.55 240.211 556.55 245.148C556.55 250.15 557.2 254.697 558.434 258.789C559.668 262.881 561.876 266.129 565.059 268.597C568.307 271.066 572.724 272.3 578.441 272.3Z" fill="#1C2135"/>
<path d="M640.28 288.993V165.12H662.3V288.993H640.28Z" fill="#1C2135"/>
<path d="M744.144 198.572L719.266 264.374L696.206 198.572H673.082L708.288 287.433L702.377 300.62C701.078 303.348 699.909 305.556 698.74 307.31H720.825C721.474 305.881 722.124 304.387 722.839 302.828L767.269 198.507H744.144V198.572Z" fill="#1C2135"/>
<path d="M807.088 271.39V214.423H827.745V198.573H807.088V175.449H789.03C789.03 180.905 788.706 185.127 788.121 188.18C787.536 191.233 786.627 193.507 785.393 195.001C784.159 196.495 782.47 197.404 780.456 197.859C778.378 198.314 775.779 198.508 772.531 198.508V214.358H786.172V266.518C786.172 274.443 787.991 280.159 791.564 283.667C795.136 287.175 800.528 288.929 807.738 288.929H828.2V271.325H807.088V271.39Z" fill="#1C2135"/>
<path d="M859.053 189.544C854.182 189.544 850.934 188.31 849.245 185.776C847.556 183.308 846.712 180.45 846.712 177.202C846.712 173.954 847.556 171.161 849.245 168.758C850.934 166.354 854.182 165.12 859.053 165.12C864.055 165.12 867.303 166.354 868.862 168.758C870.421 171.161 871.2 174.019 871.2 177.202C871.2 180.45 870.421 183.308 868.862 185.776C867.303 188.31 864.055 189.544 859.053 189.544Z" fill="#1C2135"/>
<path d="M870.294 198.572H847.819V288.992H870.294V198.572Z" fill="#1C2135"/>
<path d="M932.588 291.202C924.079 291.202 916.349 289.448 909.463 286.005C902.578 282.563 897.057 277.431 892.964 270.611C888.872 263.79 886.793 255.476 886.793 245.602C887.118 235.794 889.262 227.349 893.289 220.269C897.316 213.254 902.773 207.797 909.658 203.965C916.544 200.132 924.339 198.249 932.978 198.249C942.072 198.249 949.802 200.002 956.103 203.445C962.403 206.888 967.34 211.305 970.848 216.761C974.356 222.218 976.369 227.934 976.759 233.91H956.103C955.063 228.648 952.66 224.621 948.827 221.828C944.995 219.035 939.928 217.671 933.627 217.671C928.366 217.671 923.884 218.775 920.181 220.983C916.544 223.192 913.686 226.245 911.737 230.142C909.788 234.04 908.749 238.587 908.749 243.913C908.749 252.423 910.827 259.178 915.05 264.245C919.207 269.311 925.443 271.845 933.627 271.845C939.214 271.845 944.085 270.351 948.243 267.428C952.4 264.505 954.998 260.153 956.038 254.436H976.694C976.239 260.737 974.225 266.713 970.653 272.235C967.08 277.821 962.079 282.368 955.713 285.875C949.412 289.448 941.682 291.202 932.588 291.202Z" fill="#1C2135"/>
<path d="M1030.93 291.201C1027.88 291.201 1024.5 290.811 1020.8 289.967C1017.16 289.187 1013.46 287.888 1009.82 286.199C1006.18 284.511 1002.8 282.367 999.817 279.704C996.829 277.041 994.426 273.988 992.672 270.48C990.918 266.972 990.008 262.88 990.008 258.138H1010.66C1010.66 258.268 1010.79 259.242 1010.99 260.996C1011.18 262.75 1011.9 264.699 1013.07 266.842C1014.24 268.986 1016.12 270.87 1018.78 272.429C1021.45 274.052 1025.22 274.832 1030.22 274.832C1034.18 274.832 1037.43 274.312 1039.9 273.273C1042.36 272.234 1044.25 270.935 1045.48 269.441C1046.72 267.882 1047.37 266.193 1047.37 264.244C1047.37 260.996 1046 258.463 1043.27 256.644C1040.54 254.825 1037.1 253.331 1032.82 252.162C1028.53 250.993 1024.05 249.759 1019.3 248.524C1014.56 247.29 1010.08 245.601 1005.86 243.588C1001.7 241.509 998.258 238.716 995.595 235.143C992.931 231.571 991.632 226.894 991.632 221.178C991.632 212.668 995.01 206.302 1001.77 202.015C1008.52 197.793 1017.1 195.649 1027.49 195.649C1033.07 195.649 1038.34 196.299 1043.21 197.533C1048.14 198.767 1052.5 200.781 1056.33 203.444C1060.16 206.172 1063.21 209.615 1065.49 213.772C1067.76 217.93 1068.93 223.061 1068.93 229.037H1048.27C1048.4 225.66 1047.89 222.931 1046.65 220.788C1045.42 218.644 1043.73 217.02 1041.71 215.851C1039.64 214.682 1037.43 213.902 1035.09 213.448C1032.75 212.993 1030.48 212.798 1028.27 212.798C1023.01 212.798 1018.98 213.707 1016.25 215.526C1013.52 217.345 1012.16 219.748 1012.16 222.672C1012.16 226.049 1013.52 228.648 1016.25 230.466C1018.98 232.285 1022.49 233.779 1026.84 234.948C1031.19 236.118 1035.74 237.352 1040.61 238.586C1045.48 239.82 1049.96 241.509 1054.25 243.523C1058.47 245.601 1061.98 248.33 1064.71 251.772C1067.44 255.215 1068.8 259.827 1068.8 265.543C1068.8 271.259 1067.24 276.001 1064.06 279.769C1060.88 283.536 1056.52 286.329 1050.87 288.213C1045.22 290.227 1038.53 291.201 1030.93 291.201Z" fill="#1C2135"/>
<path d="M258.139 133.032H212.279C207.343 133.032 203.38 129.07 203.38 124.133V78.4031C203.38 76.1946 201.626 74.4407 199.418 74.4407H81.521C80.4817 74.4407 79.5074 74.8305 78.7279 75.6099L58.851 95.4868V3.96238C58.851 1.75384 57.0972 0 54.8887 0H3.96238C1.75384 0 0 1.75384 0 3.96238V243.784C0 245.992 1.75384 247.746 3.96238 247.746H49.9519C54.8887 247.746 58.916 251.708 58.916 256.645V302.635C58.916 304.843 60.6698 306.597 62.8784 306.597H203.056L203.25 306.402C207.668 301.92 211.76 297.893 215.527 294.06C231.182 278.406 243.004 266.584 260.932 248.72C261.712 247.941 262.101 246.966 262.101 245.862V136.994C262.101 134.786 260.283 133.032 258.139 133.032ZM203.25 272.17C203.25 275.677 198.963 277.431 196.495 274.963L170.382 248.85C169.668 248.136 169.213 247.096 169.213 246.057L169.148 226.505L151.48 244.953C149.791 246.707 147.452 247.681 145.049 247.681H67.8151C62.8784 247.681 58.851 243.654 58.851 238.717V142.256C58.851 137.319 62.8134 133.357 67.7501 133.357H194.221C199.158 133.357 203.185 137.384 203.185 142.321V272.17H203.25Z" fill="#1C2135"/>
<path d="M164.666 171.616H91.5247V207.537H164.666V171.616Z" fill="#AFEB2B"/>
</svg>
